<?xml version="1.0" encoding="utf-8"?>
<!-- Generator: Adobe Illustrator 25.0.0, SVG Export Plug-In . SVG Version: 6.00 Build 0)  -->
<svg version="1.1" id="Capa_1" xmlns="http://www.w3.org/2000/svg" xmlns:xlink="http://www.w3.org/1999/xlink" x="0px" y="0px"
	 viewBox="0 0 50 50" style="enable-background:new 0 0 50 50;" xml:space="preserve">
<style type="text/css">
	.st0{fill:#1D52D8;}
</style>
<g>
	<path class="st0" d="M49.2,45.5L37.7,34.1c3.1-3.7,4.8-8.4,4.8-13.2c0-5.6-2.2-10.8-6.2-14.8c-4-3.9-9.3-6.1-15-6.1s-11,2.2-15,6.1
		C2.2,10.1,0,15.3,0,20.9s2.2,10.8,6.2,14.8c4,3.9,9.3,6.1,15,6.1c2.5,0,4.9-0.4,7.2-1.2c1.9-0.7,3.7-1.6,5.3-2.8l11.7,11.5
		c0.5,0.5,1.2,0.8,1.9,0.8c0.7,0,1.4-0.3,1.9-0.8c0.5-0.5,0.8-1.2,0.8-1.9C50,46.6,49.7,46,49.2,45.5z M21.2,36.5
		c-8.7,0-15.9-7-15.9-15.6S12.5,5.3,21.2,5.3s15.9,7,15.9,15.6S30,36.5,21.2,36.5z"/>
</g>
</svg>
